<svg t="1638179318734" class="icon" viewBox="0 0 1024 1024" version="1.1" xmlns="http://www.w3.org/2000/svg" p-id="2621" width="200" height="200"><path d="M791.893333 836.266667H187.733333c-102.4 0-187.733333-85.333333-187.733333-191.146667 0-85.333333 54.613333-160.426667 133.12-184.32 23.893333-157.013333 157.013333-273.066667 314.026667-273.066667 119.466667 0 228.693333 68.266667 283.306666 177.493334 17.066667-3.413333 37.546667-6.826667 54.613334-6.826667 133.12 0 238.933333 105.813333 238.933333 238.933333 0 126.293333-98.986667 232.106667-225.28 238.933334h-6.826667z m-344.746666-614.4c-143.36 0-262.826667 109.226667-283.306667 252.586666 0 6.826667-6.826667 13.653333-13.653333 13.653334-68.266667 17.066667-119.466667 81.92-119.466667 153.6 0 88.746667 68.266667 157.013333 153.6 157.013333h607.573333c109.226667-6.826667 194.56-95.573333 194.56-204.8 0-112.64-92.16-204.8-204.8-204.8-20.48 0-40.96 3.413333-58.026666 10.24-6.826667 3.413333-17.066667 0-20.48-10.24-44.373333-98.986667-143.36-167.253333-256-167.253333z" fill="#1296db" p-id="2622"></path></svg>